<?xml version="1.0" encoding="utf-8"?>
<!-- Generator: Adobe Illustrator 19.1.0, SVG Export Plug-In . SVG Version: 6.00 Build 0)  -->
<svg version="1.1" id="Capa_1" xmlns="http://www.w3.org/2000/svg" xmlns:xlink="http://www.w3.org/1999/xlink" x="0px" y="0px"
	 viewBox="0 0 544.8 565.7" style="enable-background:new 0 0 544.8 565.7;" xml:space="preserve">
<style type="text/css">
	.st0{fill:#070935;}
	.st1{fill:#C6C6C6;}
	.st2{fill:#DC402B;}
	.st3{fill:#FFFFFF;}
</style>
<path class="st1" d="M272.4,546.5C-23.9,422.9,16.7,66.4,16.7,66.4s233.6-106.4,511.4,0C528.1,66.4,568.7,422.9,272.4,546.5"/>
<path class="st2" d="M272.4,509.7C17.6,403.3,52.5,96.7,52.5,96.7s201-91.5,439.9,0C492.3,96.7,527.2,403.3,272.4,509.7"/>
<path class="st0" d="M501.9,87.3c-249.3-95.2-459,0-459,0s-36.4,319,229.5,429.6C538.4,406.3,501.9,87.3,501.9,87.3z M272.4,478.9
	c-47.8-19.9-84.1-47.7-111.6-79.3L394.5,387C365.9,423.7,326.5,456.4,272.4,478.9z M453.2,144.6l0.1-1.5c1-11.1-4-21.7-13.1-27.9
	l0,0c-15.1-10.3-31.5-16.3-48.8-17.8c-32-2.8-60.8,7.6-83.7,30.1c-1-1.2-2-2.3-3.1-3.4c-8.4-8.9-18.8-14.8-30.8-17.5
	c-9.9-2.3-23-2.9-41.1-1.9l-31.8,1.7c-6.5,0.4-12.4,3.6-16.4,8.4c-0.2-0.2-0.3-0.4-0.5-0.5c-4.4-4.6-10.6-7.1-17-6.7l-28.1,1.5
	c-5.8,0.3-11,2.8-14.9,6.7c-1.3-1.2-4,18.7-7.1,47.1L76.7,165c-1.2-30.7,1.1-50.4,1.1-50.4s177.8-80.7,389.3,0
	c0,0,1.2,10.9,1.4,29.2L453.2,144.6z"/>
<g>
	<path class="st3" d="M130.6,351.3l3.5-0.2l1.3,26l-3.5,0.2L130.6,351.3z"/>
	<path class="st3" d="M140.7,350.8l3.3-0.2l4,10.2c1.2,2.9,2.2,6,3.1,9.2c-0.4-2-0.7-3.8-0.9-5.4c-0.2-1.6-0.4-3.1-0.4-4.6l-0.5-9.7
		l3.5-0.2l1.3,26l-3.3,0.2l-4.5-11.5c-0.4-1.1-0.8-2.2-1.2-3.3c-0.4-1.1-0.7-2.3-1.1-3.6c0-0.2-0.1-0.3-0.1-0.6
		c-0.1-0.2-0.1-0.5-0.2-0.8c0,0.3,0.1,0.5,0.1,0.7c0,0.2,0.1,0.4,0.1,0.5l0.3,2.6l0.4,3.2c0,0.2,0,0.4,0.1,0.7c0,0.3,0,0.5,0.1,0.9
		l0.8,11.3l-3.5,0.2L140.7,350.8z M148.8,344.5l2-0.1c0.1,1.1-0.1,1.9-0.6,2.6c-0.4,0.6-1,1-1.9,1c-0.4,0-1.1-0.2-2-0.6
		c-0.7-0.3-1.2-0.5-1.6-0.4c-0.4,0-0.6,0.4-0.6,1l-2,0.1c0-0.5,0-1,0.1-1.4c0.1-0.4,0.2-0.8,0.4-1.1c0.2-0.3,0.4-0.6,0.7-0.7
		c0.3-0.2,0.6-0.3,1-0.3c0.4,0,1.1,0.2,2.2,0.6c0.7,0.3,1.3,0.5,1.6,0.4C148.6,345.4,148.8,345.1,148.8,344.5z"/>
	<path class="st3" d="M163.6,349.6l2.7-0.1l6.9,25.7l-3.5,0.2l-1.2-5l-5.2,0.3l-0.7,5.1l-3.4,0.2L163.6,349.6z M167.9,367.7l-1-4.1
		c-0.7-2.8-1.2-5.8-1.7-9c-0.1,1.6-0.2,3.2-0.4,4.8c-0.2,1.6-0.4,3.3-0.6,5.1l-0.5,3.4L167.9,367.7z"/>
	<path class="st3" d="M176.5,349l3.5-0.2l0.6,12.6l4.2-12.8l3.5-0.2l-4.5,12.9l6.2,13.1l-3.9,0.2l-5.6-13.2l0.7,13.4l-3.5,0.2
		L176.5,349z"/>
	<path class="st3" d="M193.6,348.1l3.5-0.2l1.3,26l-3.5,0.2L193.6,348.1z"/>
	<path class="st3" d="M211.4,347.2l4.6-0.2c2.2-0.1,3.9,0.4,4.9,1.4c1.1,1.1,1.7,2.9,1.8,5.3c0.2,3.5-0.7,5.7-2.7,6.9
		c-1,0.5-2.5,0.8-4.4,0.9l0.6,11.5l-3.5,0.2L211.4,347.2z M215.5,358.5c1.4-0.1,2.4-0.4,3-1c0.5-0.6,0.8-1.7,0.7-3.2
		c-0.1-1.5-0.4-2.7-1-3.4s-1.4-1-2.6-0.9l-0.5,0L215.5,358.5z"/>
	<path class="st3" d="M227.6,346.4l3.5-0.2l1.3,26l-3.5,0.2L227.6,346.4z"/>
	<path class="st3" d="M248,345.8l0.2,3.1c-0.9-0.4-1.7-0.6-2.3-0.5c-0.8,0-1.5,0.3-2.1,0.7c-0.6,0.4-1,1.1-1.4,2
		c-0.3,0.9-0.6,2-0.7,3.3c-0.1,1.3-0.1,2.9,0,4.7c0.3,6.4,2.1,9.5,5.4,9.4c0.6,0,1.3-0.2,2-0.6l0.2,3.2c-0.8,0.5-1.7,0.8-2.8,0.8
		c-5.3,0.3-8.1-3.9-8.5-12.5c-0.2-4.6,0.2-8.1,1.4-10.5c1.2-2.3,3.1-3.6,5.7-3.7C246,345.1,247,345.3,248,345.8z"/>
	<path class="st3" d="M263.7,345l0.2,3.1c-0.9-0.4-1.7-0.6-2.3-0.5c-0.8,0-1.5,0.3-2.1,0.7s-1,1.1-1.4,2c-0.3,0.9-0.6,2-0.7,3.3
		c-0.1,1.3-0.1,2.9,0,4.7c0.3,6.4,2.1,9.5,5.4,9.4c0.6,0,1.3-0.2,2-0.6l0.2,3.2c-0.8,0.5-1.7,0.8-2.8,0.8c-5.3,0.3-8.1-3.9-8.5-12.5
		c-0.2-4.6,0.2-8.1,1.4-10.5c1.2-2.3,3.1-3.6,5.7-3.7C261.7,344.3,262.7,344.5,263.7,345z"/>
	<path class="st3" d="M282.7,357.3c0.2,4.6-0.1,7.9-1,9.9c-0.9,2-2.6,3-5,3.2c-2.5,0.1-4.4-0.8-5.5-2.8c-1.1-2-1.8-5.6-2.1-10.7
		c-0.2-4.6,0.1-7.9,1-9.9c0.9-2,2.6-3,5-3.2c2.2-0.1,3.8,0.6,5,2c0.7,1,1.3,2.4,1.7,4.2C282.2,351.5,282.5,354,282.7,357.3z
		 M279,357.9c-0.2-4.5-0.6-7.5-1.1-8.9c-0.5-1.5-1.3-2.2-2.6-2.1c-1.2,0.1-2,0.8-2.4,2.2c-0.3,1.4-0.4,4.1-0.2,8.3
		c0.2,3.8,0.5,6.4,1,7.9c0.5,1.4,1.4,2,2.6,2c1.2-0.1,2-0.8,2.3-2.1C279.1,363.7,279.2,361.3,279,357.9z"/>
	<path class="st3" d="M303.2,343l0.2,3.1c-0.9-0.4-1.7-0.6-2.3-0.5c-0.8,0-1.5,0.3-2.1,0.7c-0.6,0.4-1,1.1-1.4,2
		c-0.3,0.9-0.6,2-0.7,3.3c-0.1,1.3-0.1,2.9,0,4.7c0.3,6.4,2.1,9.5,5.4,9.4c0.6,0,1.3-0.2,2-0.6l0.2,3.2c-0.8,0.5-1.7,0.8-2.8,0.8
		c-5.3,0.3-8.1-3.9-8.5-12.5c-0.2-4.6,0.2-8.1,1.4-10.5c1.2-2.3,3.1-3.6,5.7-3.7C301.2,342.3,302.2,342.6,303.2,343z"/>
	<path class="st3" d="M322.2,355.3c0.2,4.6-0.1,7.9-1,9.9c-0.9,2-2.6,3-5,3.2c-2.5,0.1-4.4-0.8-5.5-2.8c-1.1-2-1.8-5.6-2.1-10.7
		c-0.2-4.6,0.1-7.9,1-9.9c0.9-2,2.6-3,5-3.2c2.2-0.1,3.8,0.6,5,2c0.7,1,1.3,2.4,1.7,4.2C321.7,349.6,322,352,322.2,355.3z
		 M318.5,355.9c-0.2-4.5-0.6-7.5-1.1-8.9c-0.5-1.5-1.3-2.2-2.6-2.1c-1.2,0.1-2,0.8-2.4,2.2c-0.3,1.4-0.4,4.2-0.2,8.3
		c0.2,3.8,0.5,6.4,1,7.9c0.5,1.4,1.4,2,2.6,2c1.2-0.1,2-0.8,2.3-2.1C318.6,361.7,318.7,359.4,318.5,355.9z"/>
	<path class="st3" d="M331.2,341.2l2.7-0.1l6.9,25.7l-3.5,0.2l-1.2-5l-5.2,0.3l-0.7,5.1l-3.4,0.2L331.2,341.2z M335.5,359.2l-1-4.1
		c-0.7-2.8-1.2-5.8-1.7-9c-0.1,1.6-0.2,3.2-0.4,4.8c-0.2,1.6-0.4,3.3-0.6,5.1l-0.5,3.4L335.5,359.2z"/>
	<path class="st3" d="M354.1,340.5l0.2,3.1c-0.9-0.4-1.7-0.6-2.3-0.5c-0.8,0-1.5,0.3-2.1,0.7c-0.6,0.4-1,1.1-1.4,2
		c-0.3,0.9-0.6,2-0.7,3.3c-0.1,1.3-0.1,2.9,0,4.7c0.3,6.4,2.1,9.5,5.4,9.4c0.6,0,1.3-0.2,2-0.6l0.2,3.2c-0.8,0.5-1.7,0.8-2.8,0.8
		c-5.3,0.3-8.1-3.9-8.5-12.5c-0.2-4.6,0.2-8.1,1.4-10.5c1.2-2.3,3.1-3.6,5.7-3.7C352.2,339.8,353.1,340,354.1,340.5z"/>
	<path class="st3" d="M359.6,339.8l3.5-0.2l0.5,10.2l5.1-0.3l-0.5-10.2l3.5-0.2l1.3,26l-3.5,0.2l-0.6-12.9l-5.1,0.3l0.6,12.9
		l-3.5,0.2L359.6,339.8z"/>
	<path class="st3" d="M378.4,338.8l3.5-0.2l1.3,26l-3.5,0.2L378.4,338.8z"/>
	<path class="st3" d="M388.5,338.3l3.3-0.2l4,10.2c1.2,2.9,2.2,6,3.1,9.2c-0.4-2-0.7-3.8-0.9-5.4c-0.2-1.6-0.4-3.1-0.4-4.6l-0.5-9.7
		l3.5-0.2l1.3,26l-3.3,0.2l-4.5-11.5c-0.4-1.1-0.8-2.2-1.2-3.3c-0.4-1.1-0.7-2.3-1.1-3.6c0-0.2-0.1-0.3-0.1-0.6
		c-0.1-0.2-0.1-0.5-0.2-0.8c0,0.3,0.1,0.5,0.1,0.7c0,0.2,0.1,0.4,0.1,0.5l0.3,2.6l0.4,3.2c0,0.2,0,0.4,0.1,0.7c0,0.3,0,0.5,0.1,0.9
		l0.8,11.3l-3.5,0.2L388.5,338.3z"/>
	<path class="st3" d="M414,349.4l6.4-0.3l0.1,1c0.3,5.1,0,8.5-0.8,10.3c-0.8,1.9-2.4,2.9-4.8,3c-2.5,0.1-4.3-0.8-5.5-2.8
		c-1.1-2-1.8-5.3-2.1-10.1c-0.3-5.5,0.1-9.1,1.2-11c1-1.8,2.6-2.7,4.8-2.8c1.7-0.1,3.1,0.3,4.1,1c1,0.8,1.8,2.1,2.5,4l-3.2,1.5
		c-0.2-0.7-0.4-1.2-0.6-1.7c-0.2-0.5-0.4-0.8-0.6-1.1c-0.5-0.5-1.1-0.7-2-0.7c-1.2,0.1-1.9,0.8-2.3,2.3c-0.3,1.5-0.4,4.2-0.2,8.1
		c0.2,3.9,0.6,6.6,1.1,8s1.4,2,2.6,2c1.1-0.1,1.9-0.6,2.3-1.6c0.4-1.1,0.6-2.8,0.4-5.1l0-0.7l0-0.5l-3,0.2L414,349.4z"/>
</g>
<g>
	<path class="st3" d="M168.2,130.1l-28.1,1.5c-2.1,0.1-4,1.9-4.2,4l-20.5,187.7c-0.2,2.1,1.3,3.7,3.4,3.6l28.1-1.5
		c2.1-0.1,4-1.9,4.2-4l20.5-187.7C171.8,131.6,170.3,130,168.2,130.1z"/>
	<path class="st3" d="M429.8,134.5c-12.5-8.5-25.9-13.4-39.9-14.6c-28.2-2.4-52.6,7-72.3,28.2c-5.5,5.9-10.1,12.2-14,18.8
		c-1.4-10.1-5.5-18.9-12.4-26c-5.8-6.2-13-10.2-21.4-12.1c-8.1-1.8-19.9-2.3-35.9-1.4l-31.8,1.7c-2.1,0.1-4,1.9-4.2,4l-20.5,187.7
		c-0.2,2.1,1.3,3.7,3.4,3.6l28.1-1.5c2.1-0.1,4-1.9,4.2-4l7.9-72.4l9.2-0.5c20.2-1.1,37.2-7.4,50.4-18.7c3.6-3.1,6.8-6.4,9.5-9.9
		c-0.4,23,6.5,43.8,20.5,61.8c15.7,20,36.2,31.2,60.8,33.4c3.6,0.3,7.2,0.4,10.8,0.3c11.1-0.4,22.1-3,32.9-7.8
		c3.9-1.7,6.5-5.5,6.9-10l1-11.7c0.4-4.5-1.7-8.8-5.3-11.1c-3.5-2.2-7.7-2.2-11.4,0c-3.7,2.2-7.2,3.9-10.5,5c-0.1,0-0.1,0-0.2,0.1
		c-5.8,2.3-12.9,3.1-21,2.4c-16-1.4-28.6-8.4-38.6-21.5c-9.9-13-14.2-28.6-12.7-46.3c1.5-17.9,8.5-32.8,20.5-44.1
		c12-11.5,25.7-16.4,41.6-15c10.6,0.9,20.9,5.2,30.5,12.8c3.2,2.5,7.2,3,10.9,1.4c4-1.7,6.7-5.5,7-10l1-11.4l0,0
		C435.2,141.1,433.3,136.9,429.8,134.5z M269.1,184c-2.6,23.5-22.8,27.3-37.8,28.1l-6.7,0.4l5.6-51.4l5.5-0.3
		C251.3,159.9,271.6,161.4,269.1,184z"/>
</g>
<g>
	<path class="st1" d="M119,327.1l28.1-1.5c2.1-0.1,4-1.9,4.2-4l4-36.9l-35.7,2l-4,36.8C115.4,325.5,116.9,327.2,119,327.1z"/>
	<path class="st1" d="M310.8,279.1c15.7,20,36.2,31.2,60.8,33.4c3.6,0.3,7.2,0.4,10.8,0.3c11.1-0.4,22.1-3,32.9-7.8
		c3.9-1.7,6.5-5.5,6.9-10l1-11.7c0.4-4.5-1.7-8.8-5.3-11.1c-3.5-2.2-7.7-2.2-11.4,0c-3.7,2.2-7.2,3.9-10.5,5c-0.1,0-0.1,0-0.2,0.1
		c-5.8,2.3-12.9,3.1-21,2.4c-7.7-0.7-14.6-2.7-20.9-6l-45.3,2.5C309.3,277.2,310,278.2,310.8,279.1z"/>
	<path class="st1" d="M177.6,320.8c-0.2,2.1,1.3,3.7,3.4,3.6l28.1-1.5c2.1-0.1,4-1.9,4.2-4l4.1-37.7l-35.7,2L177.6,320.8z"/>
	<polygon class="st1" points="160.4,237.7 124.7,239.7 120.8,275.4 156.5,273.4 	"/>
	<path class="st1" d="M301.8,265.4l38.7-2.1c-1.5-1.6-3-3.3-4.4-5.2c-6.6-8.7-10.7-18.6-12.3-29.4l-32.9,1.8
		C292.3,242.9,295.9,254.6,301.8,265.4z"/>
	<path class="st1" d="M218.6,270l2.6-23.5l9.2-0.5c17.7-1,32.8-5.9,45.2-14.6l-88.8,4.9l-3.9,35.7L218.6,270z"/>
</g>
<g>
	<polygon class="st0" points="322.2,436.2 318.9,429.6 311.7,428.6 316.9,423.5 315.7,416.3 322.2,419.7 328.6,416.3 327.4,423.5 
		332.6,428.6 325.4,429.6 	"/>
	<polygon class="st0" points="274.2,455.9 268.1,443.5 254.4,441.5 264.3,431.8 262,418.2 274.2,424.6 286.5,418.2 284.1,431.8 
		294.1,441.5 280.4,443.5 	"/>
	<polygon class="st0" points="226.3,436.2 223,429.6 215.8,428.6 221,423.5 219.8,416.3 226.3,419.7 232.7,416.3 231.5,423.5 
		236.7,428.6 229.5,429.6 	"/>
</g>
</svg>
